#!OML:ASF H:\ManfredETheater\Project 1\Capture day 1\Session 1\subject.ASF
:FULLY-SPECIFIED
:DEGREES
76
root 1.94437 15.918 1.94379 16.8402 -22.4891 -0.552974
lowerback 15.1609 4.28923 0.55127
upperback 0.383456 5.89941 1.69389
thorax -8.20758 2.85021 0.204171
lowerneck -18.501 -2.33729 -1.01982
upperneck 10.2515 -2.08868 -5.54602
head 6.0765 -1.52932 -1.83529
rclavicle -1.35174e-014 0
rhumerus -13.7802 16.879 -79.0723
rradius 101.969
rwrist -5.83409
rhand -28.15 12.7104
rfingers 7.12502
rthumb -1.53079 -17.2639
lclavicle -1.35174e-014 0
lhumerus -75.5618 -3.04499 60.3571
lradius 69.3784
lwrist 14.0923
lhand -19.5067 -8.44433
lfingers 7.12502
lthumb 6.81606 21.4259
rfemur -7.24905 -14.4858 29.1672
rtibia 48.3317
rfoot -14.6634 15.9726
rtoes -28.0781
lfemur -68.8773 2.58925 -13.3105
ltibia 88.035
lfoot -7.04382 -17.8678
ltoes 24.268
77
root 1.68279 15.9514 2.48244 17.1819 -21.1333 -1.6502
lowerback 14.9147 4.11696 1.20062
upperback 0.373088 5.81333 2.10381
thorax -8.05991 2.79514 0.315387
lowerneck -18.6698 -2.57167 -1.15864
upperneck 10.5419 -2.41017 -5.13395
head 6.19406 -1.66223 -1.72129
rclavicle -3.02153e-014 2.14687e-014
rhumerus -14.8136 17.2902 -79.704
rradius 101.991
rwrist -4.68798
rhand -27.9185 13.0061
rfingers 7.12502
rthumb -1.3072 -16.9697
lclavicle -3.02153e-014 2.14687e-014
lhumerus -76.6156 -3.76346 62.3862
lradius 70.6774
lwrist 14.2201
lhand -19.349 -8.83792
lfingers 7.12502
lthumb 6.96824 21.0274
rfemur -3.94579 -14.1141 29.7039
rtibia 44.7327
rfoot -7.65293 18.0536
rtoes -25.376
lfemur -70.3897 2.46451 -14.4503
ltibia 85.2752
lfoot -6.18627 -17.6708
ltoes 26.5221
78
root 1.42074 15.98 3.02339 17.3988 -19.7959 -2.64618
lowerback 14.7391 3.93869 1.80234
upperback 0.384586 5.70406 2.47382
thorax -7.9293 2.72947 0.410102
lowerneck -18.8588 -2.79653 -1.29943
upperneck 10.8027 -2.72246 -4.71162
head 6.30799 -1.78838 -1.60316
rclavicle 2.98177e-014 -9.54166e-015
rhumerus -16.0729 17.4999 -80.4349
rradius 101.726
rwrist -3.75372
rhand -27.6857 13.1178
rfingers 7.12502
rthumb -1.08238 -16.8592
lclavicle 2.98177e-014 -9.54166e-015
lhumerus -77.4186 -4.20896 64.3224
lradius 71.9283
lwrist 14.6565
lhand -19.2219 -9.17418
lfingers 7.12502
lthumb 7.09094 20.687
rfemur -0.804437 -13.3446 30.312
rtibia 41.285
rfoot -0.401595 18.7053
rtoes -23.1991
lfemur -71.4122 2.36743 -15.9203
ltibia 82.2474
lfoot -5.14621 -17.2435
ltoes 28.8765
79
root 1.16012 16.0024 3.56579 17.5388 -18.5304 -3.55689
lowerback 14.6091 3.76779 2.37114
upperback 0.405873 5.59308 2.7977
thorax -7.81293 2.66311 0.470727
lowerneck -19.0363 -3.00523 -1.4352
upperneck 11 -3.01614 -4.30675
head 6.40177 -1.90466 -1.48874
rclavicle -4.05521e-014 4.13472e-014
rhumerus -17.5224 17.5055 -81.2428
rradius 101.176
rwrist -3.14772
rhand -27.4583 13.0135
rfingers 7.12502
rthumb -0.862702 -16.9645
lclavicle -4.05521e-014 4.13472e-014
lhumerus -77.9652 -4.41201 66.1383
lradius 73.1516
lwrist 15.3267
lhand -19.087 -9.40103
lfingers 7.12502
lthumb 7.22118 20.4558
rfemur 2.03987 -12.213 31.0097
rtibia 38.2412
rfoot 6.04355 18.1288
rtoes -22.0536
lfemur -71.9816 2.35156 -17.6712
ltibia 79.0197
lfoot -3.90437 -16.6911
ltoes 31.0874
80
root 0.904509 16.0093 4.10675 17.6472 -17.369 -4.40413
lowerback 14.5105 3.61212 2.93585
upperback 0.422002 5.49683 3.07219
thorax -7.716 2.60281 0.47529
lowerneck -19.1797 -3.19525 -1.56251
upperneck 11.1172 -3.28685 -3.93447
head 6.46571 -2.0102 -1.38212
rclavicle 2.78299e-015 -3.97569e-015
rhumerus -19.1235 17.3154 -82.0965
rradius 100.353
rwrist -2.93528
rhand -27.2228 12.6938
rfingers 7.12502
rthumb -0.635255 -17.2849
lclavicle 2.78299e-015 -3.97569e-015
lhumerus -78.2647 -4.40454 67.8249
lradius 74.339
lwrist 16.0707
lhand -18.9838 -9.54494
lfingers 7.12502
lthumb 7.32079 20.3084
rfemur 4.43178 -10.8373 31.7891
rtibia 35.9479
rfoot 10.9078 16.844
rtoes -22.0191
lfemur -72.2062 2.4354 -19.6266
ltibia 75.702
lfoot -2.40724 -16.1021
ltoes 33.0198
81
root 0.653205 16.0145 4.64887 17.7637 -16.3295 -5.20297
lowerback 14.4112 3.47389 3.52726
upperback 0.424513 5.4228 3.29442
thorax -7.6264 2.55131 0.404388
lowerneck -19.2776 -3.36419 -1.67974
upperneck 11.1516 -3.53054 -3.60019
head 6.49651 -2.10384 -1.28445
rclavicle 8.34896e-015 -3.02153e-014
rhumerus -20.8223 16.9455 -82.964
rradius 99.269
rwrist -3.10013
rhand -26.9643 12.1829
rfingers 7.12502
rthumb -0.385564 -17.7965
lclavicle 8.34896e-015 -3.02153e-014
lhumerus -78.3271 -4.20942 69.3777
lradius 75.474
lwrist 16.7538
lhand -18.9194 -9.62114
lfingers 7.12502
lthumb 7.38297 20.23
rfemur 6.22938 -9.42117 32.5872
rtibia 34.7114
rfoot 13.8649 15.3361
rtoes -23.33
lfemur -72.0467 2.64146 -21.7013
ltibia 72.3104
lfoot -0.667672 -15.5414
ltoes 34.6408
82
root 0.408895 16.015 5.19102 17.9024 -15.4317 -5.95471
lowerback 14.3114 3.35594 4.14986
upperback 0.404109 5.37623 3.46365
thorax -7.55363 2.51067 0.253802
lowerneck -19.3136 -3.50652 -1.78617
upperneck 11.1104 -3.73883 -3.30838
head 6.4934 -2.18238 -1.19603
rclavicle 6.59965e-014 -9.54166e-015
rhumerus -22.5822 16.415 -83.8212
rradius 97.9413
rwrist -3.53681
rhand -26.6821 11.5359
rfingers 7.12502
rthumb -0.113082 -18.4438
lclavicle 6.59965e-014 -9.54166e-015
lhumerus -78.1817 -3.84228 70.8037
lradius 76.5419
lwrist 17.2825
lhand -18.9032 -9.64895
lfingers 7.12502
lthumb 7.39857 20.2017
rfemur 7.33734 -8.17502 33.2941
rtibia 34.7888
rfoot 15.0173 13.7638
rtoes -25.5928
lfemur -71.5722 2.96711 -23.8195
ltibia 68.9548
lfoot 1.27087 -15.0531
ltoes 35.877
83
root 0.172715 16.011 5.73369 18.0755 -14.6878 -6.67359
lowerback 14.1862 3.25882 4.81204
upperback 0.368302 5.35748 3.58552
thorax -7.47503 2.48144 0.0270353
lowerneck -19.3047 -3.61634 -1.8773
upperneck 11.0137 -3.90317 -3.06097
head 6.46519 -2.24229 -1.11783
rclavicle 3.97569e-016 -1.27222e-014
rhumerus -24.3394 15.7469 -84.6344
rradius 96.3803
rwrist -4.11899
rhand -26.3844 10.8533
rfingers 7.12502
rthumb 0.174502 -19.1263
lclavicle 3.97569e-016 -1.27222e-014
lhumerus -77.8355 -3.31151 72.1139
lradius 77.5189
lwrist 17.6188
lhand -18.9449 -9.63968
lfingers 7.12502
lthumb 7.35834 20.2124
rfemur 7.76403 -7.26122 33.8158
rtibia 36.1865
rfoot 14.7497 11.9646
rtoes -28.3255
lfemur -70.8312 3.41957 -25.9031
ltibia 65.7357
lfoot 3.15571 -14.628
ltoes 36.8131
84
root -0.0543263 16.0027 6.27671 18.2666 -14.1094 -7.35547
lowerback 14.0507 3.18281 5.49531
upperback 0.321499 5.36494 3.66773
thorax -7.39615 2.4635 -0.257512
lowerneck -19.2542 -3.68792 -1.95107
upperneck 10.8818 -4.0146 -2.86486
head 6.41852 -2.28015 -1.05177
rclavicle -6.75868e-015 6.36111e-015
rhumerus -26.0576 14.977 -85.3767
rradius 94.601
rwrist -4.70787
rhand -26.1135 10.1834
rfingers 7.12502
rthumb 0.4361 -19.7959
lclavicle -6.75868e-015 6.36111e-015
lhumerus -77.3108 -2.62411 73.3291
lradius 78.3969
lwrist 17.7982
lhand -19.0451 -9.62039
lfingers 7.12502
lthumb 7.26157 20.235
rfemur 7.59783 -6.74794 34.062
rtibia 38.7613
rfoot 13.671 9.63504
rtoes -30.776
lfemur -69.8484 3.99626 -27.8936
ltibia 62.8237
lfoot 4.36603 -14.3616
ltoes 36.2387
85
root -0.272026 15.9904 6.82078 18.4461 -13.6979 -8.01623
lowerback 13.9285 3.125 6.18668
upperback 0.27466 5.39544 3.73247
thorax -7.32145 2.45606 -0.569308
lowerneck -19.1695 -3.71326 -2.00874
upperneck 10.7354 -4.05995 -2.7295
head 6.36092 -2.29073 -0.999751
rclavicle 3.45885e-014 3.4191e-014
rhumerus -27.7076 14.1544 -86.0135
rradius 92.6251
rwrist -5.2211
rhand -25.8804 9.54743
rfingers 7.12502
rthumb 0.661249 -20.4313
lclavicle 3.45885e-014 3.4191e-014
lhumerus -76.6327 -1.78269 74.4808
lradius 79.172
lwrist 17.885
lhand -19.2029 -9.60087
lfingers 7.12502
lthumb 7.10933 20.2597
rfemur 6.99443 -6.60616 34.002
rtibia 42.2215
rfoot 12.3571 6.61004
rtoes -32.5228
lfemur -68.6564 4.69304 -29.7177
ltibia 60.3819
lfoot 4.72519 -14.1159
ltoes 35.7683
86
root -0.480036 15.9736 7.36626 18.5792 -13.4329 -8.6656
lowerback 13.8535 3.07451 6.87917
upperback 0.234796 5.43821 3.80133
thorax -7.26514 2.45396 -0.881318
lowerneck -19.0486 -3.68824 -2.05195
upperneck 10.586 -4.03201 -2.66368
head 6.29551 -2.27136 -0.963768
rclavicle 5.60573e-014 5.64548e-014
rhumerus -29.2755 13.3133 -86.5134
rradius 90.4698
rwrist -5.63175
rhand -25.6869 8.9938
rfingers 7.12502
rthumb 0.848182 -20.9843
lclavicle 5.60573e-014 5.64548e-014
lhumerus -75.8239 -0.79525 75.5998
lradius 79.8496
lwrist 17.9586
lhand -19.3856 -9.57586
lfingers 7.12502
lthumb 6.93297 20.2906
rfemur 6.11637 -6.76066 33.6388
rtibia 46.2404
rfoot 11.1285 3.05499
rtoes -33.3568
lfemur -67.2796 5.48735 -31.3246
ltibia 58.5491
lfoot 3.98275 -13.8324
ltoes 35.12
